<svg xmlns="http://www.w3.org/2000/svg" viewBox="0 0 512 512" role="img" aria-label="Fleet EV TCO">
  <rect width="512" height="512" rx="96" fill="#0f766e"/>
  <path fill="#ffffff" d="M128 320h256v32H128zm48-96h32l24 64h32l-28-72c8-4 14-12 14-22 0-14-11-26-26-26h-60c-15 0-26 12-26 26 0 10 6 18 14 22l-28 72h32zm88-40c11 0 20 9 20 20s-9 20-20 20-20-9-20-20 9-20 20-20z"/>
  <path fill="#5eead4" d="M352 176c22 0 40 18 40 40v8h-24v-8c0-9-7-16-16-16s-16 7-16 16v48c0 9 7 16 16 16h48c9 0 16-7 16-16v-48c0-22-18-40-40-40z"/>
</svg>
